<?xml version="1.0" standalone="no"?>
<!DOCTYPE svg PUBLIC "-//W3C//DTD SVG 20010904//EN"
 "http://www.w3.org/TR/2001/REC-SVG-20010904/DTD/svg10.dtd">
<svg version="1.0" xmlns="http://www.w3.org/2000/svg"
 width="710.000000pt" height="472.000000pt" viewBox="0 0 710.000000 472.000000"
 preserveAspectRatio="xMidYMid meet">

<g transform="translate(0.000000,472.000000) scale(0.100000,-0.100000)"
fill="#000000" stroke="none">
<path d="M2740 4662 c-87 -88 -8 -212 135 -212 28 0 60 -6 70 -14 18 -13 17
-14 -7 -30 -14 -9 -52 -21 -83 -26 -32 -5 -63 -14 -68 -19 -17 -17 1 -39 40
-50 64 -18 83 -14 117 26 17 20 43 49 58 65 50 52 90 17 47 -41 -30 -41 -20
-61 32 -61 22 0 54 -8 70 -17 27 -16 30 -16 46 -1 15 16 14 21 -16 79 -40 76
-36 94 20 85 72 -12 153 -60 196 -118 19 -26 23 -44 23 -100 0 -40 -4 -68 -10
-68 -26 0 -91 43 -105 70 -19 36 -19 60 0 86 25 36 -2 47 -35 14 -48 -48 -6
-142 80 -182 28 -13 50 -28 50 -35 0 -20 -51 -53 -82 -53 -50 0 -97 35 -98 72
0 18 -26 48 -40 48 -17 0 -21 -39 -6 -73 10 -26 26 -40 65 -58 28 -12 50 -28
48 -33 -2 -6 -31 -11 -65 -11 -46 0 -68 5 -89 21 -39 29 -73 82 -73 115 0 42
-10 59 -34 59 -87 0 -44 -160 56 -209 33 -16 63 -21 119 -21 93 0 140 21 200
87 l45 50 94 1 95 0 29 -39 c52 -69 98 -93 184 -98 120 -6 190 27 232 110 25
48 25 81 1 103 -32 29 -55 17 -62 -31 -7 -55 -49 -116 -93 -137 -39 -18 -134
-19 -139 -1 -1 6 18 20 42 31 55 26 81 57 81 95 0 53 -41 46 -55 -9 -4 -15
-14 -35 -22 -44 -35 -39 -130 -30 -154 14 -12 23 -14 21 30 38 104 42 150 147
87 199 -22 18 -47 -2 -28 -21 23 -23 14 -82 -15 -110 -38 -36 -84 -53 -95 -36
-12 20 -9 95 6 131 33 81 206 174 252 136 12 -10 10 -19 -16 -64 -48 -84 -35
-124 29 -91 16 9 48 16 71 16 34 0 40 3 40 20 0 12 -10 34 -22 50 -17 24 -19
32 -8 45 20 25 32 19 96 -50 66 -71 83 -76 154 -51 65 24 39 66 -40 66 -36 0
-100 29 -100 46 0 15 33 24 89 24 133 0 207 117 130 205 -53 60 -129 41 -129
-33 0 -27 4 -32 23 -32 13 0 29 6 36 13 10 10 15 8 27 -7 19 -27 18 -41 -8
-70 -25 -28 -128 -60 -176 -54 -41 5 -38 29 13 103 25 37 45 75 43 84 -10 49
-87 -4 -112 -76 -19 -54 -42 -83 -68 -83 -25 0 -24 42 2 65 24 21 27 73 5 81
-9 4 -23 -3 -34 -17 -10 -13 -40 -30 -67 -39 -61 -21 -66 -41 -19 -70 48 -30
33 -45 -59 -59 -84 -12 -125 -42 -170 -121 -27 -48 -31 -65 -31 -128 0 -68 -2
-73 -23 -79 -13 -3 -28 -1 -34 5 -11 11 -6 251 7 288 5 16 2 22 -12 26 -32 7
-55 -2 -47 -20 4 -10 9 -81 12 -159 4 -124 2 -143 -11 -143 -41 0 -47 11 -47
79 0 141 -96 251 -218 251 -21 0 -47 7 -58 15 -18 15 -18 16 19 46 44 37 38
52 -25 70 -22 6 -50 21 -63 35 -28 31 -43 30 -51 -1 -4 -18 1 -33 20 -56 30
-35 33 -57 9 -66 -18 -7 -73 47 -73 73 0 28 -30 74 -60 89 -40 21 -50 19 -50
-9 0 -22 18 -54 72 -126 20 -28 21 -32 6 -46 -21 -22 -109 -12 -170 19 -40 20
-43 25 -43 62 0 34 3 40 20 37 56 -10 70 -7 73 14 2 11 -7 32 -18 47 -29 37
-72 36 -110 -1z"/>
<path d="M1357 4604 c-14 -15 -6 -54 16 -80 19 -22 34 -28 80 -32 64 -5 79 12
25 26 -24 6 -39 19 -54 48 -19 37 -50 54 -67 38z"/>
<path d="M5689 4583 c-5 -16 -11 -33 -14 -39 -2 -7 -20 -17 -39 -24 -20 -6
-36 -16 -36 -21 0 -17 84 -9 117 11 53 32 58 100 8 100 -19 0 -28 -7 -36 -27z"/>
<path d="M2226 4570 c-52 -46 -71 -106 -71 -220 1 -82 5 -103 28 -155 70 -151
170 -214 372 -230 l90 -8 -40 -14 c-100 -35 -232 -23 -319 28 -51 30 -115 112
-182 232 -114 205 -179 288 -239 303 -34 8 -57 -2 -53 -23 2 -15 41 -41 115
-79 17 -8 97 -113 91 -119 -3 -3 -26 6 -52 21 -87 48 -221 42 -287 -14 -32
-26 -38 -52 -13 -52 9 0 42 14 73 32 43 25 67 32 106 32 93 -2 189 -62 241
-152 62 -108 157 -191 270 -237 29 -12 51 -25 47 -28 -3 -4 -27 -7 -53 -7 -35
0 -60 8 -104 35 -80 48 -171 114 -247 178 -93 79 -163 108 -224 93 -44 -11
-31 -36 20 -36 40 0 46 -3 60 -31 12 -22 35 -40 82 -61 67 -32 84 -51 64 -71
-9 -9 -24 -7 -62 6 -65 24 -91 16 -87 -26 2 -26 11 -36 46 -55 81 -45 212 -39
197 9 -8 24 -4 24 47 -2 102 -52 197 -73 265 -58 27 6 77 16 113 23 169 33
274 87 309 159 29 60 40 157 18 157 -8 0 -17 -6 -20 -14 -3 -8 -25 -21 -48
-27 -40 -12 -43 -12 -65 14 -29 34 -46 35 -42 0 4 -34 49 -67 93 -67 40 0 43
-9 16 -50 -29 -43 -69 -66 -98 -55 -13 5 -73 9 -132 9 -99 0 -109 2 -128 23
-32 34 -35 60 -15 113 23 58 36 129 27 144 -4 6 -12 7 -24 1 -10 -6 -23 -6
-31 -1 -12 7 -11 12 4 29 11 12 15 27 11 40 -3 12 1 31 11 45 15 24 15 26 -1
33 -53 20 -118 -89 -118 -197 0 -58 26 -124 66 -167 35 -39 -1 -25 -48 18 -61
57 -89 117 -89 199 -1 58 2 70 34 115 30 43 34 57 33 102 -3 49 -1 54 27 68
17 9 30 18 30 20 0 3 -18 5 -40 5 -30 0 -48 -7 -74 -30z"/>
<path d="M4740 4590 c0 -5 11 -12 24 -16 31 -7 38 -27 31 -78 -6 -36 -2 -47
26 -86 57 -79 51 -189 -15 -280 -18 -25 -48 -54 -67 -65 l-34 -19 18 24 c10
14 29 49 44 79 22 45 25 63 20 112 -6 72 -42 149 -79 169 -37 20 -57 3 -34
-32 10 -15 12 -28 6 -38 -6 -10 -4 -23 6 -38 19 -29 10 -44 -22 -36 -22 6 -24
4 -24 -32 1 -22 9 -64 20 -94 25 -72 25 -93 -4 -127 -24 -27 -27 -28 -133 -28
-59 0 -120 -4 -134 -8 -20 -7 -32 -3 -58 19 -28 23 -61 72 -61 90 0 3 10 4 21
1 28 -8 97 20 110 45 5 10 7 28 4 39 -7 20 -8 20 -35 -10 -35 -38 -56 -39
-104 -6 -46 31 -60 24 -51 -24 23 -130 59 -176 175 -220 43 -17 97 -33 121
-37 24 -3 76 -15 116 -25 62 -17 81 -18 136 -9 36 7 99 27 141 45 l76 33 0
-23 c0 -37 69 -46 156 -20 86 25 123 82 69 107 -21 9 -32 8 -61 -5 -50 -24
-76 -22 -72 6 2 16 20 30 69 53 49 24 69 40 78 62 12 27 18 31 59 34 53 4 67
23 22 33 -73 16 -124 -7 -246 -111 -112 -95 -259 -186 -309 -192 -24 -2 -52
-1 -62 3 -15 5 -10 10 22 23 59 23 165 94 207 138 20 22 54 68 76 104 45 75
106 122 190 146 60 18 111 10 162 -26 52 -37 100 -37 80 0 -17 31 -108 70
-165 70 -63 0 -143 -23 -179 -51 -34 -27 -33 -18 3 35 39 57 91 101 135 116
61 20 70 70 13 70 -53 0 -137 -98 -237 -274 -87 -153 -158 -244 -214 -273 -86
-45 -204 -54 -296 -23 l-55 18 50 1 c83 3 198 27 251 54 61 31 138 111 167
175 19 40 22 65 22 167 0 105 -3 125 -22 162 -13 23 -36 51 -52 62 -30 21
-101 29 -101 11z"/>
<path d="M1525 4576 c-24 -18 -13 -46 19 -46 34 0 56 -25 56 -65 0 -24 -6 -38
-20 -45 -30 -16 -25 -40 8 -40 46 0 94 66 62 85 -5 3 -10 28 -10 55 0 39 -4
52 -19 60 -27 14 -74 13 -96 -4z"/>
<path d="M5460 4583 c-23 -9 -29 -23 -23 -59 4 -22 0 -42 -11 -60 -16 -23 -16
-27 -2 -50 18 -26 56 -40 83 -30 14 6 12 11 -12 36 -22 23 -26 34 -20 57 10
40 23 53 56 53 38 0 47 19 19 42 -22 18 -60 22 -90 11z"/>
<path d="M1700 4560 c-26 -26 -26 -72 0 -95 17 -15 24 -16 45 -7 23 10 45 47
45 73 0 14 -38 49 -55 49 -8 0 -24 -9 -35 -20z"/>
<path d="M5307 4562 c-25 -28 -21 -67 9 -91 33 -26 39 -26 64 -1 27 27 25 56
-5 85 -29 30 -46 31 -68 7z"/>
<path d="M1449 4456 c-68 -27 -106 -54 -148 -101 -33 -37 -35 -44 -25 -69 12
-31 43 -16 85 39 35 47 73 78 175 142 35 22 -26 15 -87 -11z"/>
<path d="M5530 4474 c0 -5 20 -18 43 -28 23 -11 76 -54 119 -99 80 -82 108
-93 108 -43 0 37 -51 89 -127 129 -68 35 -143 57 -143 41z"/>
<path d="M1495 4405 c-45 -44 -24 -135 31 -135 34 0 41 26 15 54 -23 24 -27
56 -11 87 15 28 -5 25 -35 -6z"/>
<path d="M5540 4426 c0 -1 5 -17 11 -34 9 -27 8 -35 -10 -58 -29 -37 -28 -64
3 -64 43 0 76 53 61 100 -9 29 -65 78 -65 56z"/>
<path d="M1475 4191 c-51 -13 -107 -46 -205 -122 -116 -90 -196 -139 -227
-139 -29 0 -63 33 -63 62 0 12 12 35 27 50 26 28 26 28 4 28 -43 0 -80 -28
-92 -70 -10 -32 -17 -40 -36 -40 -13 0 -26 7 -29 15 -10 25 -24 17 -24 -14 0
-34 43 -81 74 -81 20 -1 20 -1 2 -15 -10 -8 -24 -16 -30 -19 -7 -3 -6 -8 4
-16 9 -7 41 -9 82 -7 81 5 120 26 232 127 l79 70 12 -35 c8 -22 11 -67 7 -124
l-5 -89 -43 -17 c-101 -39 -118 -85 -61 -164 37 -50 64 -67 54 -32 -4 11 -10
30 -13 41 -5 15 2 23 30 37 21 10 39 27 42 40 3 12 12 27 20 34 11 9 18 6 34
-13 11 -15 38 -30 63 -37 73 -18 87 -53 27 -65 -35 -7 -32 -26 4 -26 16 0 36
15 60 44 54 66 47 110 -24 146 -47 24 -51 40 -11 40 27 0 81 39 81 59 0 5 -11
18 -24 28 -17 14 -23 26 -19 45 4 19 -2 30 -23 47 -29 23 -45 21 -25 -3 7 -8
11 -27 9 -43 -2 -22 -9 -29 -31 -31 -18 -2 -32 -12 -39 -28 -15 -33 -45 -31
-52 4 -18 95 -17 127 6 172 32 62 111 103 203 104 54 1 68 -3 87 -21 21 -21
21 -22 2 -28 -54 -17 -67 -44 -38 -76 22 -25 45 -24 78 2 19 15 26 30 26 55 0
46 -33 78 -101 98 -56 17 -86 18 -134 7z"/>
<path d="M5485 4191 c-81 -22 -125 -60 -125 -108 0 -28 41 -73 68 -73 54 0 74
78 23 90 -39 9 -36 29 6 46 32 14 48 15 98 5 157 -29 205 -98 177 -256 -9 -48
-37 -60 -52 -21 -6 18 -17 26 -33 26 -43 0 -62 43 -32 74 9 9 11 17 5 21 -5 3
-21 -5 -35 -19 -19 -19 -24 -32 -19 -50 4 -18 1 -27 -15 -36 -12 -6 -21 -19
-21 -30 0 -26 46 -60 81 -60 39 0 36 -18 -5 -35 -41 -18 -66 -50 -66 -86 0
-55 102 -137 124 -100 7 10 -17 21 -46 21 -14 0 -19 6 -16 22 2 16 16 25 58
39 30 10 61 27 69 38 19 29 29 26 45 -13 8 -20 26 -39 45 -47 33 -15 37 -31
21 -73 -7 -20 -6 -26 5 -26 18 0 85 101 85 129 0 29 -32 59 -97 87 l-54 24 6
43 c4 24 2 63 -5 86 -8 31 -8 47 -1 54 6 6 11 21 11 34 0 13 3 23 6 23 3 0 45
-35 94 -79 98 -86 142 -111 206 -119 49 -5 114 5 114 17 0 5 -15 14 -32 21
l-33 12 29 9 c44 13 66 38 66 77 0 33 -1 34 -18 19 -28 -26 -62 -22 -62 7 0
33 -35 73 -71 81 -41 9 -45 2 -15 -30 31 -34 32 -45 5 -79 -13 -17 -30 -26
-48 -26 -31 0 -126 60 -256 161 -44 34 -99 71 -123 81 -49 22 -124 31 -167 19z"/>
<path d="M3516 4028 c-9 -12 -16 -30 -16 -40 0 -23 -42 -25 -60 -3 -7 8 -21
15 -31 15 -31 0 -49 -39 -49 -107 0 -53 3 -63 18 -63 9 0 33 18 52 39 19 22
47 43 63 47 25 6 27 4 27 -24 0 -17 -5 -34 -11 -38 -6 -3 -17 -22 -25 -40 -12
-29 -12 -39 0 -69 13 -31 19 -35 50 -35 66 0 86 66 40 131 -14 21 -24 46 -22
56 6 33 36 25 86 -21 27 -25 54 -46 61 -46 14 0 15 124 1 151 -13 23 -58 26
-66 4 -4 -9 -19 -15 -35 -15 -25 0 -29 4 -29 28 0 27 -15 52 -31 52 -5 0 -15
-10 -23 -22z"/>
<path d="M2810 3946 c-16 -25 -30 -54 -30 -65 0 -27 34 -57 84 -74 l41 -14 7
-79 c4 -50 3 -91 -5 -111 l-11 -32 -60 52 c-127 110 -183 137 -259 123 -42 -8
-47 -18 -15 -33 22 -10 22 -10 -7 -24 -32 -15 -61 -62 -50 -80 5 -7 13 -4 26
7 24 21 49 11 49 -20 0 -28 42 -66 73 -66 20 0 20 0 -1 23 -40 42 -19 97 37
97 28 0 115 -55 221 -139 30 -24 78 -54 105 -67 l50 -24 -206 0 c-259 0 -257
-1 -484 179 -149 118 -278 170 -315 126 -19 -23 5 -45 49 -45 53 0 129 -25
179 -58 l42 -29 -73 0 c-115 0 -218 -57 -254 -141 l-13 -32 -727 2 -728 3 -9
27 c-8 23 -6 32 15 54 18 19 31 24 49 20 73 -16 92 -18 113 -12 49 12 65 124
24 170 -38 43 -69 43 -115 2 -38 -35 -82 -46 -108 -28 -43 30 -57 108 -29 162
15 29 15 30 -9 30 -35 0 -84 -45 -97 -90 -10 -33 -9 -43 5 -65 24 -37 71 -62
128 -70 77 -11 55 -31 -30 -27 -64 4 -71 2 -82 -18 -27 -50 26 -67 89 -29 18
11 45 19 59 17 26 -3 26 -3 -16 -43 -31 -29 -43 -49 -45 -72 l-2 -33 -222 0
-223 0 0 -36 c0 -29 3 -35 16 -30 9 3 1586 6 3505 6 l3490 0 -3 28 -3 27 -217
3 -218 2 0 31 c0 24 -10 40 -40 68 -22 20 -40 40 -40 44 0 14 46 6 79 -14 58
-35 117 -8 80 38 -11 12 -26 14 -74 10 -33 -3 -67 -2 -75 3 -17 11 -14 12 68
30 66 15 112 55 112 100 0 61 -50 120 -103 120 l-24 0 19 -40 c51 -102 -49
-213 -121 -136 -57 61 -128 51 -151 -19 -14 -42 -6 -102 17 -127 20 -22 81
-24 111 -2 19 13 26 13 49 2 39 -18 56 -57 39 -83 -13 -20 -25 -20 -739 -23
l-725 -2 -6 24 c-23 91 -178 168 -296 146 l-45 -8 25 20 c43 36 123 67 185 73
69 7 96 25 75 49 -36 44 -165 -6 -305 -116 -118 -94 -205 -154 -249 -172 -31
-13 -78 -16 -245 -16 l-206 1 48 24 c26 13 86 54 132 90 161 122 213 140 244
83 15 -26 14 -29 -14 -58 l-29 -30 28 0 c34 0 76 41 76 75 0 29 16 32 48 9 21
-15 22 -14 22 14 0 31 -16 50 -59 68 l-26 11 28 8 c62 16 7 42 -69 31 -61 -8
-92 -26 -182 -105 l-78 -69 -11 27 c-5 15 -8 64 -5 109 l5 82 53 24 c77 36 86
60 44 125 -39 59 -66 70 -48 19 8 -23 8 -33 0 -36 -22 -7 -62 -44 -62 -57 0
-26 -21 -26 -51 -1 -17 14 -39 26 -49 26 -10 0 -28 9 -41 19 l-24 20 35 15
c28 12 32 16 18 21 -26 10 -41 2 -72 -44 -38 -55 -29 -97 27 -124 42 -21 48
-37 13 -37 -26 0 -76 -35 -76 -53 0 -7 9 -18 21 -25 13 -8 18 -19 15 -29 -8
-20 20 -63 40 -63 13 0 14 3 4 14 -21 26 -8 61 23 64 19 2 31 11 37 28 21 55
50 8 50 -82 0 -71 -20 -109 -71 -135 -53 -26 -138 -36 -179 -19 -37 15 -38 27
-5 40 34 13 41 36 20 60 -23 25 -50 25 -75 0 -40 -40 -19 -97 48 -127 22 -9
-2 -12 -135 -12 -90 -1 -163 1 -163 3 0 3 4 16 10 30 6 18 31 36 83 60 40 19
81 44 92 56 18 20 18 21 -4 41 -24 23 -19 43 9 34 13 -4 24 2 36 20 10 15 26
25 40 25 29 0 31 11 6 33 -27 25 -69 21 -137 -12 -89 -42 -132 -102 -150 -214
-8 -47 -21 -40 -30 16 -12 70 -35 115 -80 155 -65 57 -173 90 -203 60 -18 -18
-14 -38 8 -38 11 0 27 -11 36 -25 11 -17 22 -24 34 -20 29 9 35 -16 9 -37
l-24 -18 33 -29 c19 -16 55 -37 80 -46 57 -22 69 -31 88 -67 l15 -28 -172 0
-172 0 43 23 c53 28 70 65 46 102 -33 50 -100 40 -94 -14 2 -18 10 -27 26 -29
27 -4 29 -28 3 -42 -53 -28 -178 0 -227 51 -27 29 -29 35 -28 110 1 96 14 116
47 77 12 -15 33 -28 47 -30 28 -3 41 -45 18 -59 -10 -7 -9 -9 3 -9 24 0 42 26
35 53 -4 16 0 26 14 35 11 7 20 19 20 26 0 21 -49 56 -78 56 -21 0 -22 2 -12
15 7 8 19 15 26 15 24 0 54 39 54 68 0 34 -54 102 -81 102 -31 0 -30 -17 2
-24 47 -9 34 -38 -24 -56 -27 -9 -53 -23 -58 -33 -14 -25 -26 -21 -44 13 -9
17 -27 35 -42 41 -22 8 -24 13 -19 44 9 48 -7 44 -44 -9z m-463 -401 c27 -8
70 -30 94 -49 25 -18 63 -43 84 -55 l40 -21 -269 0 -268 0 42 50 c23 28 52 56
63 62 58 31 138 36 214 13z m2599 -16 c19 -11 48 -41 65 -65 l30 -44 -263 0
-263 0 48 28 c26 15 65 40 87 56 23 16 62 35 88 43 64 18 164 9 208 -18z"/>
<path d="M1190 3892 c-51 -52 -79 -72 -129 -92 -74 -29 -113 -69 -91 -95 30
-37 104 -4 181 82 36 40 119 157 119 167 0 15 -20 -1 -80 -62z"/>
<path d="M5810 3951 c0 -42 179 -245 226 -257 40 -10 69 -1 72 23 4 31 -33 64
-99 87 -39 14 -74 39 -126 89 -40 39 -73 65 -73 58z"/>
<path d="M822 3728 c-22 -22 -14 -86 13 -113 13 -14 31 -25 39 -25 19 0 56 47
56 72 0 22 -18 60 -34 70 -17 12 -61 9 -74 -4z"/>
<path d="M6167 3722 c-34 -37 -9 -132 34 -132 23 0 69 59 69 88 0 55 -68 83
-103 44z"/>
<path d="M32 3289 c2 -6 7 -10 11 -10 4 1 1580 1 3502 1 2323 0 3495 3 3495
10 0 7 -1175 10 -3506 10 -2496 0 -3505 -3 -3502 -11z"/>
<path d="M350 2836 c0 -15 12 -34 30 -49 l30 -26 0 -423 0 -423 -35 -23 c-25
-15 -35 -30 -35 -47 l0 -25 145 0 145 0 0 24 c0 17 -11 31 -35 46 l-35 22 0
189 0 189 78 0 79 0 18 -40 c14 -30 24 -40 42 -40 23 0 23 0 23 131 0 129 0
130 -22 127 -15 -2 -31 -19 -46 -46 l-24 -43 -71 3 -72 3 -3 193 -2 192 105 0
c120 0 110 7 140 -102 l16 -58 39 0 40 0 0 125 0 125 -275 0 -275 0 0 -24z"/>
<path d="M4787 2853 c-16 -15 -5 -43 23 -59 16 -10 32 -29 35 -43 6 -32 155
-928 155 -936 0 -3 34 -5 75 -5 52 0 77 4 81 13 2 7 31 136 63 287 33 158 60
266 64 255 3 -11 29 -141 58 -288 l51 -268 81 3 81 3 86 484 c85 481 85 483
113 497 18 10 27 23 27 39 0 25 0 25 -105 25 l-105 0 0 -28 c0 -21 7 -32 26
-41 20 -9 25 -17 21 -34 -3 -12 -29 -165 -58 -339 -30 -175 -56 -318 -59 -318
-3 0 -34 159 -69 353 -35 193 -66 358 -69 365 -2 7 -23 12 -52 12 -38 0 -50
-4 -54 -17 -2 -10 -35 -179 -72 -375 -38 -197 -69 -356 -71 -354 -4 4 -103
656 -103 678 0 10 13 24 29 32 23 12 27 20 24 41 l-5 25 -132 0 c-73 0 -136
-3 -139 -7z"/>
<path d="M1783 2760 c-59 -12 -98 -35 -125 -72 -20 -29 -23 -47 -26 -146 -2
-63 -1 -125 2 -138 13 -49 73 -100 164 -139 153 -66 166 -84 161 -219 -4 -73
-7 -88 -28 -110 -26 -28 -76 -35 -111 -16 -24 13 -40 62 -40 121 l0 49 -80 0
-80 0 0 -65 c0 -142 83 -215 245 -215 84 0 148 20 189 58 46 43 56 80 56 202
0 169 -23 200 -195 271 -44 18 -92 45 -107 60 -26 26 -28 33 -28 116 0 97 12
127 57 144 32 12 89 -5 103 -31 5 -10 13 -43 16 -74 l7 -56 68 0 69 0 0 130 0
130 -50 0 c-43 0 -50 -3 -50 -20 0 -25 0 -25 -47 -1 -47 24 -114 32 -170 21z"/>
<path d="M3572 2751 c-61 -21 -104 -58 -135 -116 -21 -38 -22 -55 -25 -323 -4
-329 1 -363 68 -430 56 -56 119 -76 224 -70 95 5 148 28 195 85 17 21 36 54
41 73 15 53 13 593 -2 644 -38 125 -212 190 -366 137z m169 -97 c54 -27 58
-53 60 -366 1 -244 -1 -289 -15 -316 -23 -45 -53 -62 -109 -62 -58 0 -90 27
-107 90 -17 64 -9 576 9 613 28 54 102 73 162 41z"/>
<path d="M1136 2743 c-5 -16 -138 -579 -182 -767 -14 -58 -24 -82 -41 -93 -13
-9 -23 -25 -23 -39 0 -24 2 -24 95 -24 95 0 95 0 95 25 0 18 -8 29 -25 37 -14
6 -24 16 -22 22 2 6 12 46 22 89 l19 77 116 0 117 0 20 -90 20 -90 -24 -15
c-12 -9 -23 -24 -23 -35 0 -19 7 -20 125 -20 l125 0 0 24 c0 14 -10 30 -24 39
-21 14 -35 60 -121 409 -53 216 -101 410 -106 431 l-10 37 -74 0 c-61 0 -75
-3 -79 -17z m102 -383 c23 -102 42 -191 42 -197 0 -10 -25 -13 -89 -13 -50 0
-92 3 -94 8 -6 12 86 403 93 395 4 -5 25 -91 48 -193z"/>
<path d="M2270 2731 c0 -20 7 -34 20 -41 19 -10 20 -21 20 -398 l0 -387 -32
-26 c-21 -18 -29 -32 -25 -43 5 -14 25 -16 137 -16 122 0 130 1 130 19 0 11
-13 29 -30 41 l-30 21 0 175 0 174 100 0 100 0 0 -172 0 -173 -32 -26 c-21
-18 -29 -32 -25 -43 5 -14 25 -16 132 -16 l125 0 0 25 c0 17 -8 29 -25 37
l-25 11 0 394 c0 382 1 393 20 405 12 8 20 24 20 40 l0 28 -120 0 -120 0 0
-24 c0 -14 11 -33 25 -44 25 -20 25 -21 25 -186 l0 -166 -100 0 -100 0 0 169
0 169 26 16 c17 12 24 25 22 39 -3 21 -8 22 -120 25 l-118 3 0 -30z"/>
<path d="M3010 2733 c0 -17 8 -33 20 -41 19 -12 20 -23 20 -401 l0 -389 -25
-16 c-16 -10 -25 -26 -25 -41 l0 -25 130 0 c121 0 130 1 130 19 0 11 -13 31
-30 44 l-30 26 0 381 0 382 26 20 c16 13 24 28 22 42 -3 20 -9 21 -120 24
l-118 3 0 -28z"/>
<path d="M4130 2731 c0 -20 7 -34 20 -41 19 -10 20 -21 20 -399 l0 -389 -25
-16 c-16 -10 -25 -26 -25 -41 l0 -25 105 0 c104 0 105 0 105 24 0 14 -10 32
-25 43 l-24 18 -3 322 c-2 177 -2 321 -2 320 1 -1 46 -157 99 -347 54 -190
104 -353 113 -362 12 -14 31 -18 89 -18 l73 0 0 425 0 425 25 16 c17 11 25 25
25 46 l0 29 -97 -3 c-91 -3 -98 -4 -101 -24 -2 -14 6 -29 22 -42 l26 -20 -1
-288 -1 -289 -24 103 c-33 143 -152 524 -170 542 -10 10 -44 16 -119 18 l-105
4 0 -31z"/>
<path d="M5870 2733 c0 -17 8 -33 20 -41 19 -12 20 -23 20 -401 l0 -389 -25
-16 c-16 -10 -25 -26 -25 -41 l0 -25 130 0 c121 0 130 1 130 19 0 11 -13 31
-30 44 l-30 26 0 381 0 382 26 20 c16 13 24 28 22 42 -3 20 -9 21 -120 24
l-118 3 0 -28z"/>
<path d="M6230 2740 c0 -12 11 -30 23 -40 16 -13 48 -83 102 -225 l78 -206
-89 -186 c-67 -139 -96 -189 -116 -202 -17 -10 -28 -25 -28 -38 0 -22 3 -23
100 -23 99 0 100 0 100 24 0 13 -9 30 -21 37 -20 14 -19 16 39 137 l59 124 57
-144 c31 -78 66 -151 78 -160 29 -26 188 -26 188 -1 0 9 -13 28 -29 42 -23 20
-48 74 -110 236 -45 116 -81 215 -81 222 0 27 165 346 187 360 13 9 23 25 23
40 0 24 0 24 -97 21 -90 -3 -98 -5 -101 -24 -2 -14 5 -24 23 -32 l25 -12 -24
-52 c-40 -91 -80 -168 -86 -168 -3 0 -26 55 -50 121 -59 164 -58 163 -164 168
-83 3 -86 2 -86 -19z"/>
<path d="M30 1440 c0 -7 1175 -10 3505 -10 2330 0 3505 3 3505 10 0 7 -1175
10 -3505 10 -2330 0 -3505 -3 -3505 -10z"/>
<path d="M30 1340 l0 -30 225 0 225 0 0 -32 c0 -24 10 -43 42 -75 l42 -43 -29
0 c-17 0 -43 9 -60 20 -53 35 -110 16 -86 -28 14 -27 26 -30 99 -24 69 5 87
-11 25 -23 -60 -11 -120 -41 -138 -69 -34 -51 4 -134 71 -156 44 -15 50 -10
30 29 -24 46 -20 99 10 138 34 45 72 45 118 -2 44 -43 82 -46 120 -9 22 22 26
36 26 81 0 44 -5 58 -25 78 -27 28 -67 32 -105 10 -35 -20 -47 -18 -75 10 -29
28 -32 57 -9 79 14 14 94 16 735 16 l719 0 14 -32 c40 -96 197 -167 302 -139
l39 10 -25 -20 c-48 -40 -120 -70 -185 -76 -71 -6 -96 -23 -75 -48 35 -42 153
2 295 111 50 37 113 85 140 106 28 21 73 50 102 63 50 24 59 25 255 25 l203 0
-51 -29 c-28 -15 -89 -57 -135 -93 -143 -110 -187 -128 -223 -92 -22 21 -20
46 5 78 20 25 20 26 1 26 -30 0 -70 -37 -74 -68 -4 -32 -29 -40 -52 -17 -13
14 -17 14 -21 2 -10 -26 14 -66 47 -80 31 -13 32 -14 11 -21 -65 -21 22 -45
95 -26 49 12 80 32 175 113 32 27 59 48 60 46 18 -25 24 -66 19 -132 l-5 -77
-45 -20 c-56 -25 -82 -47 -82 -71 0 -25 58 -109 76 -109 11 0 12 4 4 19 -16
31 -12 45 20 63 17 9 35 29 40 43 11 28 25 32 38 10 4 -9 30 -24 58 -33 56
-20 70 -48 30 -58 -34 -8 -34 -26 0 -22 17 2 37 17 57 45 28 39 29 44 17 74
-9 20 -26 37 -47 45 -38 17 -43 34 -9 34 27 0 76 35 76 55 0 8 -9 19 -20 25
-15 8 -19 17 -15 31 8 23 -19 59 -44 59 -13 0 -13 -2 -3 -9 8 -5 12 -21 10
-37 -2 -23 -8 -30 -31 -32 -19 -2 -31 -11 -37 -28 -22 -56 -50 -8 -50 85 0 79
27 118 100 148 60 24 104 28 144 13 32 -12 34 -37 3 -42 -15 -2 -23 -11 -25
-29 -6 -54 61 -64 94 -14 22 34 5 75 -44 103 l-37 22 163 0 c130 0 162 -3 162
-14 0 -17 -38 -66 -51 -66 -19 0 -119 -53 -136 -72 -17 -19 -16 -20 6 -37 26
-20 20 -45 -9 -36 -12 4 -23 -3 -34 -20 -9 -14 -25 -25 -36 -25 -22 0 -26 -20
-8 -38 30 -30 136 1 201 59 47 40 70 85 82 156 9 56 22 63 30 16 19 -113 79
-193 170 -226 64 -22 98 -22 118 1 19 20 13 32 -14 32 -9 0 -24 11 -33 25 -12
18 -23 24 -36 20 -28 -9 -33 11 -9 34 22 20 22 21 4 41 -11 12 -52 36 -92 55
-66 32 -93 56 -93 84 0 7 54 11 163 11 154 -1 161 -2 132 -17 -48 -25 -65 -44
-65 -75 0 -54 60 -87 95 -52 22 23 15 46 -19 63 l-30 14 25 20 c20 16 34 18
81 14 87 -8 146 -40 169 -93 19 -41 19 -72 3 -151 -5 -27 -32 -30 -41 -5 -9
22 -23 32 -50 32 -18 0 -23 6 -23 28 0 15 5 33 12 40 9 9 9 12 0 12 -14 0 -52
-36 -52 -49 0 -6 5 -13 11 -17 7 -4 1 -15 -17 -29 l-29 -23 24 -26 c14 -14 35
-26 47 -26 36 0 38 -18 4 -35 -40 -21 -64 -58 -54 -87 11 -35 70 -92 88 -85
25 10 19 27 -9 27 -18 0 -25 5 -25 19 0 14 13 24 49 36 27 9 55 23 61 31 18
20 29 17 40 -11 5 -13 23 -31 41 -40 31 -16 32 -23 14 -67 -5 -12 -3 -18 7
-18 8 0 29 23 47 50 46 70 38 94 -38 128 l-59 26 -5 80 c-2 45 -1 85 4 90 5 6
9 19 9 29 0 15 13 7 60 -35 124 -110 190 -141 269 -123 37 8 39 18 9 32 -22
11 -22 11 -3 18 36 14 55 38 55 68 0 29 -1 29 -18 14 -30 -27 -49 -21 -56 18
-8 39 -38 65 -75 65 l-25 0 29 -30 c28 -29 29 -32 14 -58 -31 -57 -78 -41
-231 75 -54 40 -119 85 -144 98 l-47 25 200 0 c154 0 210 -4 245 -16 27 -9
110 -64 199 -131 84 -63 180 -128 213 -144 67 -32 127 -37 146 -14 21 25 -4
42 -68 47 -54 4 -144 38 -185 70 -16 12 -9 14 55 14 114 0 219 58 254 141 l14
33 719 0 c563 0 721 -3 728 -12 24 -31 22 -49 -6 -81 -28 -31 -30 -32 -63 -18
-82 34 -121 23 -139 -38 -16 -52 -4 -105 28 -131 37 -29 65 -25 113 15 50 42
82 44 115 9 37 -40 42 -88 16 -142 l-22 -44 28 6 c61 15 103 64 103 122 0 45
-52 89 -124 104 -85 17 -84 34 1 27 81 -7 107 5 101 43 -4 35 -32 36 -95 5
-72 -37 -88 -22 -33 32 30 30 40 49 40 72 l0 31 220 0 220 0 0 30 0 30 -3505
0 -3505 0 0 -30z m2459 -75 c-109 -76 -143 -90 -234 -90 -96 0 -125 14 -185
85 l-42 50 263 0 263 0 -65 -45z m2521 -5 c-60 -72 -89 -85 -185 -84 -87 0
-130 15 -216 76 -25 18 -55 38 -65 45 -15 9 37 12 244 12 l264 1 -42 -50z"/>
<path d="M1209 1173 c-91 -113 -86 -157 26 -198 28 -10 52 -20 55 -22 2 -3 4
-30 2 -61 -1 -31 1 -70 6 -87 8 -27 4 -41 -25 -94 -1 -2 -45 35 -99 83 -73 66
-108 89 -147 101 -53 16 -97 19 -134 9 -30 -8 -29 -18 4 -33 l28 -13 -31 -13
c-37 -15 -64 -50 -64 -82 0 -26 12 -30 30 -8 23 28 48 18 60 -25 12 -45 42
-70 84 -70 l30 0 -27 28 c-32 33 -34 65 -7 92 39 39 75 23 245 -104 161 -121
193 -138 275 -144 83 -6 162 24 186 70 14 26 13 33 -3 66 -15 31 -24 38 -53
40 -24 3 -38 -2 -47 -14 -23 -31 -15 -53 25 -70 l37 -15 -25 -21 c-56 -46
-249 2 -283 70 -23 45 -27 74 -17 141 10 75 25 96 45 66 27 -38 36 -45 60 -45
22 0 25 -5 25 -35 0 -22 -6 -38 -17 -44 -16 -9 -16 -10 3 -11 31 0 58 34 50
64 -4 18 0 28 19 40 14 9 25 23 25 30 0 21 -58 66 -86 66 -35 0 -30 17 10 34
39 16 66 51 66 83 0 32 -77 115 -103 111 -30 -4 -34 -28 -5 -28 13 0 30 -4 38
-10 22 -13 -12 -46 -57 -55 -19 -3 -46 -18 -60 -31 -29 -29 -50 -26 -55 8 -2
15 -17 30 -41 43 -39 21 -40 23 -22 83 9 26 -6 29 -26 5z"/>
<path d="M5837 1184 c-3 -3 -2 -17 4 -31 15 -39 11 -50 -22 -64 -20 -8 -37
-25 -45 -46 -17 -38 -21 -40 -48 -14 -12 11 -43 28 -71 38 -37 14 -50 24 -50
38 0 14 8 21 28 23 32 4 32 25 0 30 -28 4 -93 -77 -93 -115 0 -39 25 -71 62
-81 43 -11 46 -28 6 -36 -35 -7 -78 -41 -78 -63 0 -7 11 -20 25 -29 20 -13 23
-19 14 -36 -14 -26 16 -67 50 -68 11 0 10 4 -3 19 -27 29 -17 65 17 69 19 2
34 13 45 33 33 58 51 34 59 -81 5 -67 3 -79 -18 -109 -46 -67 -195 -112 -269
-81 -38 16 -39 37 0 45 24 5 30 12 30 34 0 34 -17 51 -51 51 -32 0 -69 -41
-69 -75 0 -57 85 -105 184 -105 71 0 137 34 278 140 119 91 184 130 213 130
20 0 65 -44 65 -64 0 -8 -12 -28 -26 -45 -24 -29 -25 -31 -5 -31 50 0 91 41
91 90 0 24 27 26 58 4 21 -15 22 -14 22 15 0 36 -27 67 -66 77 l-27 7 34 18
34 17 -30 12 c-39 16 -123 7 -171 -18 -22 -11 -77 -54 -124 -96 -47 -41 -88
-76 -92 -76 -5 0 -8 8 -8 18 0 10 -5 23 -11 29 -9 9 -9 23 0 56 6 25 8 65 5
90 l-6 44 58 27 c106 49 114 69 59 152 -37 56 -49 67 -58 58z"/>
<path d="M832 1107 c-32 -34 -30 -91 4 -114 24 -15 29 -15 53 -2 38 21 49 61
28 104 -20 42 -53 47 -85 12z"/>
<path d="M6166 1108 c-17 -23 -21 -75 -8 -94 8 -13 46 -34 61 -34 21 0 51 40
51 69 0 65 -72 106 -104 59z"/>
<path d="M970 1025 c-21 -25 6 -62 66 -90 29 -14 58 -25 65 -25 6 0 47 -35 90
-77 82 -80 97 -85 53 -18 -118 178 -230 263 -274 210z"/>
<path d="M6004 1012 c-74 -54 -201 -215 -192 -242 2 -7 28 16 58 51 43 50 69
69 129 96 89 41 111 58 111 88 0 43 -51 46 -106 7z"/>
<path d="M3496 1001 c-25 -27 -24 -87 2 -114 12 -13 22 -35 22 -50 0 -42 -35
-34 -88 18 -62 61 -72 59 -72 -15 0 -97 32 -140 75 -100 34 32 62 26 69 -16
11 -58 61 -55 68 4 4 34 30 40 65 13 23 -19 29 -20 47 -8 16 11 22 28 27 78 9
105 -5 114 -68 44 -69 -77 -129 -51 -68 29 29 37 32 81 9 114 -19 27 -64 29
-88 3z"/>
<path d="M2230 847 c-36 -13 -79 -31 -97 -40 -41 -22 -46 -21 -38 3 15 46
-111 50 -196 7 -50 -26 -66 -58 -42 -83 18 -17 46 -15 100 7 25 10 36 10 44 2
21 -21 1 -42 -65 -72 -46 -21 -69 -38 -80 -60 -15 -28 -21 -31 -61 -31 -24 0
-46 -4 -50 -9 -10 -17 36 -33 79 -29 61 7 100 30 203 116 172 143 301 211 360
187 14 -5 5 -13 -42 -34 -122 -56 -218 -150 -283 -277 -17 -32 -98 -82 -162
-101 -62 -18 -120 -9 -170 27 -14 10 -38 22 -53 25 -66 17 -3 -62 69 -85 58
-19 162 -9 222 22 29 15 52 24 52 20 0 -4 -20 -32 -44 -63 -31 -39 -61 -64
-102 -85 -61 -30 -83 -65 -49 -78 56 -21 152 80 260 275 134 241 224 313 390
313 77 -1 159 -19 150 -34 -4 -6 -33 -10 -65 -10 -179 0 -305 -73 -373 -218
-30 -62 -32 -75 -32 -172 0 -92 3 -111 25 -155 27 -53 78 -95 116 -95 33 0 39
18 10 31 -28 13 -39 44 -25 70 11 22 -3 61 -39 109 -23 30 -27 44 -27 105 0
60 4 78 31 125 17 30 47 68 68 84 37 31 61 29 33 -2 -55 -61 -71 -174 -38
-263 25 -66 47 -89 83 -89 31 0 36 11 12 31 -10 8 -13 21 -9 37 4 16 0 31 -10
43 -22 23 -11 40 23 37 26 -3 27 -1 25 37 -2 22 -12 67 -24 100 -16 47 -18 66
-10 87 18 48 44 56 193 60 149 3 161 -1 194 -64 19 -37 19 -38 -25 -38 -51 0
-91 -31 -91 -71 0 -37 11 -37 38 1 27 37 48 38 96 5 54 -36 60 -33 53 29 -6
62 -33 120 -74 158 -32 31 -122 69 -204 87 -30 7 -74 17 -99 24 -87 22 -179
19 -250 -6z"/>
<path d="M4620 855 c-19 -7 -51 -14 -70 -14 -47 -2 -191 -53 -240 -85 -45 -29
-75 -82 -91 -156 -16 -73 -7 -89 32 -56 41 35 90 35 118 0 20 -26 41 -25 41 1
0 32 -47 69 -93 74 l-46 6 16 33 c31 64 51 70 206 63 138 -6 139 -6 164 -35
27 -32 27 -60 -1 -131 -8 -22 -15 -59 -16 -83 0 -40 1 -42 24 -36 31 7 43 -12
21 -36 -13 -14 -14 -23 -6 -38 8 -15 7 -23 -4 -32 -36 -30 0 -54 44 -30 22 11
58 91 67 148 9 58 -1 100 -40 165 -39 64 -33 72 19 26 60 -53 88 -111 92 -193
4 -68 3 -73 -32 -126 -30 -46 -35 -61 -31 -92 8 -47 -1 -67 -32 -79 -37 -14
-13 -33 30 -25 46 8 96 62 114 121 21 73 18 203 -7 270 -57 154 -199 245 -381
245 -112 0 -90 25 40 45 60 10 160 -11 221 -46 63 -36 120 -107 202 -253 113
-200 175 -277 234 -289 61 -11 59 39 -2 68 -48 23 -119 89 -146 135 -18 30 -9
42 12 16 35 -42 197 -60 269 -31 38 16 82 52 82 67 0 17 -50 7 -105 -22 -68
-36 -105 -37 -181 -9 -67 25 -132 87 -186 176 -43 72 -120 137 -223 187 -66
32 -68 35 -42 41 15 4 43 4 62 1 43 -8 208 -118 324 -215 47 -39 101 -76 120
-81 46 -13 102 -13 121 0 13 9 13 11 0 20 -8 5 -21 8 -28 5 -26 -9 -57 6 -74
36 -12 21 -39 40 -83 60 -47 21 -65 34 -65 49 0 29 13 32 62 13 61 -22 100
-12 96 25 -4 34 -51 66 -120 80 -71 14 -122 4 -126 -26 -2 -12 -5 -22 -6 -22
-2 0 -29 12 -61 26 -115 53 -222 67 -295 39z"/>
<path d="M3095 741 c-22 -10 -50 -28 -62 -40 -70 -66 -73 -171 -7 -171 22 0
29 10 25 34 -5 23 32 95 64 126 32 31 40 33 101 34 38 1 69 -4 71 -9 2 -6 -21
-22 -49 -36 -45 -21 -55 -31 -68 -67 -10 -29 -11 -45 -4 -52 16 -16 44 0 50
29 10 50 49 81 102 81 31 0 82 -33 82 -53 0 -7 -22 -22 -50 -35 -58 -27 -100
-81 -100 -128 0 -40 30 -80 54 -71 16 6 16 9 2 29 -20 28 -20 51 -1 88 14 27
79 70 105 70 6 0 10 -28 10 -68 0 -57 -4 -74 -25 -102 -36 -49 -111 -97 -173
-111 -77 -18 -85 -5 -44 72 24 48 29 66 21 80 -12 23 -27 24 -53 4 -11 -8 -39
-15 -63 -15 -54 0 -65 -19 -34 -61 25 -34 24 -62 -2 -67 -22 -4 -50 19 -88 75
-19 27 -39 44 -58 48 -38 8 -110 -11 -118 -32 -9 -22 23 -43 64 -43 44 0 103
-25 103 -43 0 -20 -22 -27 -78 -27 -90 -1 -172 -62 -172 -128 0 -54 52 -112
100 -112 34 0 73 41 68 72 -3 23 -15 26 -73 16 -22 -3 -30 20 -21 59 13 48
185 96 215 59 12 -15 11 -21 -8 -46 -53 -72 -71 -104 -71 -126 0 -56 81 -6
104 64 19 55 57 98 80 89 23 -9 20 -31 -10 -66 -19 -23 -24 -38 -20 -56 8 -30
29 -32 47 -5 8 11 36 28 64 38 60 22 69 44 25 67 -20 10 -30 22 -28 33 3 16
19 21 121 37 89 14 167 129 167 248 l0 67 31 0 31 0 -5 -137 c-2 -76 -8 -148
-12 -160 -7 -21 -4 -23 30 -23 36 0 37 1 30 28 -4 15 -9 87 -12 160 l-5 133
32 -3 31 -3 3 -75 c1 -53 8 -87 23 -116 29 -55 94 -112 135 -118 18 -3 51 -7
72 -10 22 -3 46 -12 54 -20 13 -12 10 -17 -22 -38 -20 -12 -35 -30 -34 -38 2
-8 26 -22 53 -32 27 -10 57 -27 66 -39 19 -26 49 -20 49 10 0 11 -11 36 -24
56 -28 41 -24 68 8 63 20 -3 39 -32 75 -117 15 -37 74 -72 91 -55 15 15 0 48
-49 114 -46 61 -47 63 -26 80 21 17 112 5 167 -23 40 -20 43 -25 43 -62 0 -42
-1 -43 -57 -29 -36 8 -48 -28 -21 -65 29 -39 73 -40 115 -2 29 26 33 35 33 79
0 36 -6 56 -20 72 -30 34 -94 60 -147 60 -56 0 -78 7 -78 27 0 18 59 43 104
43 18 0 44 8 57 19 l23 18 -25 16 c-37 23 -87 30 -117 17 -15 -7 -45 -35 -68
-63 -41 -53 -79 -71 -90 -43 -3 8 4 28 16 44 34 46 24 66 -36 72 -28 3 -59 11
-68 19 -21 18 -46 7 -46 -20 0 -12 14 -47 30 -76 17 -30 28 -59 24 -65 -11
-17 -101 -1 -148 26 -86 51 -126 110 -126 188 0 66 10 74 58 49 68 -35 87 -86
57 -153 -11 -28 32 -23 46 4 33 62 -7 141 -91 179 -27 12 -50 26 -50 30 0 13
61 59 79 59 48 0 83 -23 104 -69 25 -52 57 -68 57 -27 0 48 -18 75 -69 100
-64 33 -70 43 -26 52 102 19 205 -64 205 -166 0 -27 3 -30 30 -30 67 0 62 98
-8 168 -42 42 -96 62 -168 62 -86 0 -124 -17 -187 -81 l-58 -59 -92 0 -93 0
-38 46 c-73 88 -212 121 -311 75z"/>
<path d="M1279 444 c-34 -41 78 -147 196 -183 77 -24 92 -15 29 17 -28 14 -82
58 -125 103 -42 44 -78 79 -81 79 -3 0 -12 -7 -19 -16z"/>
<path d="M1490 440 c-29 -29 -27 -90 3 -118 30 -28 52 -30 37 -3 -15 30 -12
56 11 85 11 15 18 33 15 41 -8 21 -43 18 -66 -5z"/>
<path d="M5527 453 c-12 -12 -7 -33 15 -63 18 -25 20 -33 10 -55 -15 -33 -15
-35 1 -35 50 0 71 107 28 141 -24 20 -43 24 -54 12z"/>
<path d="M5725 413 c-51 -64 -90 -99 -147 -128 -59 -31 -62 -46 -7 -34 109 25
234 120 227 175 -5 45 -31 40 -73 -13z"/>
<path d="M1570 340 c-12 -8 -11 -13 8 -33 17 -18 23 -34 20 -57 -3 -35 -15
-45 -60 -55 -56 -11 -26 -55 37 -55 53 0 65 13 65 71 0 26 5 51 10 54 18 11
10 43 -16 64 -29 23 -42 25 -64 11z"/>
<path d="M5449 338 c-37 -31 -41 -45 -23 -73 11 -17 15 -36 11 -60 -4 -24 -1
-40 9 -50 19 -19 84 -20 109 -1 16 12 17 16 6 30 -7 9 -26 16 -42 16 -32 0
-34 3 -44 47 -5 27 -2 37 19 56 19 18 23 26 14 35 -16 16 -40 15 -59 0z"/>
<path d="M1702 244 c-41 -29 -19 -94 33 -94 24 0 55 33 55 57 0 17 -36 53 -53
53 -7 0 -23 -7 -35 -16z"/>
<path d="M5307 242 c-33 -36 -13 -92 32 -92 34 0 54 20 54 57 0 47 -55 69 -86
35z"/>
<path d="M1403 226 c-36 -16 -53 -43 -53 -81 0 -53 56 -41 74 16 8 25 20 37
42 44 17 6 33 15 35 20 6 16 -63 16 -98 1z"/>
<path d="M5600 231 c0 -6 16 -17 35 -26 25 -10 40 -25 51 -50 17 -41 37 -53
59 -35 23 19 18 46 -13 81 -23 26 -38 33 -80 37 -35 3 -52 1 -52 -7z"/>
</g>
</svg>
