<?xml version="1.0" standalone="no"?>
<!DOCTYPE svg PUBLIC "-//W3C//DTD SVG 20010904//EN"
 "http://www.w3.org/TR/2001/REC-SVG-20010904/DTD/svg10.dtd">
<svg version="1.0" xmlns="http://www.w3.org/2000/svg"
 width="840.000000pt" height="926.000000pt" viewBox="0 0 840.000000 926.000000"
 preserveAspectRatio="xMidYMid meet">

<g transform="translate(0.000000,926.000000) scale(0.100000,-0.100000)"
fill="#000000" stroke="none">
<path d="M1723 9225 c0 -22 2 -30 4 -17 2 12 2 30 0 40 -3 9 -5 -1 -4 -23z"/>
<path d="M1895 9250 c-4 -6 18 -10 59 -10 61 0 81 -9 56 -25 -27 -17 -2 -25
75 -25 l85 0 0 35 0 35 -134 0 c-79 0 -137 -4 -141 -10z"/>
<path d="M2640 9225 l0 -35 230 0 230 0 0 35 0 35 -230 0 -230 0 0 -35z"/>
<path d="M3570 9225 l0 -35 225 0 225 0 0 35 0 35 -225 0 -225 0 0 -35z"/>
<path d="M4490 9225 l0 -35 -230 0 -230 0 0 -134 0 -133 88 -12 c115 -15 277
-30 330 -31 l42 0 0 155 0 155 230 0 230 0 0 35 0 35 -230 0 -230 0 0 -35z"/>
<path d="M5420 9225 l0 -35 230 0 230 0 0 -84 0 -84 83 -30 c112 -41 301 -100
343 -108 l34 -6 0 156 0 156 230 0 230 0 0 -225 0 -225 23 -5 c12 -4 117 -7
232 -8 l210 -2 1 -93 2 -93 68 -48 c69 -48 224 -202 224 -221 0 -6 35 -10 86
-10 l85 0 -3 -240 c-2 -132 -1 -236 0 -230 2 6 88 10 233 10 l229 0 0 -230 0
-230 -160 0 c-88 0 -160 -3 -160 -7 0 -6 134 -415 147 -450 4 -9 28 -13 89
-13 l84 0 0 -224 c0 -153 -3 -225 -11 -228 -7 -2 -6 -15 4 -38 l16 -35 -6 33
-5 32 106 0 106 0 0 235 0 235 -105 0 -105 0 0 230 0 230 105 0 105 0 0 230 0
230 -105 0 -105 0 0 230 0 230 105 0 105 0 0 235 0 235 -105 0 -105 0 0 -230
0 -230 -145 0 c-80 -1 -182 -1 -227 -1 l-83 -1 0 229 0 228 225 0 225 0 3 233
2 232 105 0 105 0 0 35 0 35 -105 0 -105 0 0 -35 0 -35 -230 0 -230 0 0 35 0
35 -230 0 -230 0 0 -35 0 -35 -235 0 -235 0 0 35 0 35 -230 0 -230 0 0 -35 0
-35 -230 0 -230 0 0 35 0 35 -230 0 -230 0 0 -35z m2310 -265 l0 -230 -230 0
-230 0 0 230 0 230 230 0 230 0 0 -230z"/>
<path d="M2403 9182 l-223 -2 0 -225 0 -225 228 2 227 3 0 223 c0 123 -2 225
-5 225 -3 1 -105 1 -227 -1z"/>
<path d="M3110 9051 l0 -140 138 64 c75 34 150 75 166 90 l30 26 54 -20 c30
-12 56 -21 58 -21 2 0 4 32 4 70 l0 70 -225 0 -225 0 0 -139z"/>
<path d="M4957 9183 c-2 -5 -5 -68 -6 -140 l-3 -133 24 0 c45 1 283 44 396 72
l42 10 0 99 0 99 -224 0 c-124 0 -227 -3 -229 -7z"/>
<path d="M1698 9018 c-1 -90 -4 -126 -5 -80 l-4 82 -115 0 c-100 0 -115 -2
-121 -17 -4 -10 -18 -31 -31 -48 l-25 -30 59 -3 c32 -2 62 -6 66 -10 3 -4 -17
-41 -45 -82 l-52 -75 -73 -3 c-39 -2 -72 -7 -72 -12 0 -6 85 -10 215 -10 l215
0 0 225 c0 124 -2 225 -5 225 -3 0 -6 -73 -7 -162z"/>
<path d="M1263 8895 c0 -22 2 -30 4 -17 2 12 2 30 0 40 -3 9 -5 -1 -4 -23z"/>
<path d="M1261 8744 c0 -11 3 -14 6 -6 3 7 2 16 -1 19 -3 4 -6 -2 -5 -13z"/>
<path d="M848 8713 c23 -2 59 -2 80 0 20 2 1 4 -43 4 -44 0 -61 -2 -37 -4z"/>
<path d="M1032 8713 c37 -2 100 -2 140 0 40 1 10 3 -67 3 -77 0 -110 -1 -73
-3z"/>
<path d="M1720 8545 l0 -176 59 33 c33 18 57 37 54 42 -4 5 -1 6 4 3 15 -9
134 44 126 56 -3 6 -1 7 6 3 6 -4 54 9 106 30 l95 37 0 74 0 73 -225 0 -225 0
0 -175z"/>
<path d="M1168 8692 c-58 -2 -69 -6 -79 -25 -6 -12 -29 -46 -51 -74 l-39 -53
66 0 c75 0 79 -6 34 -65 l-30 -40 -134 -5 -134 -5 -4 85 c-1 47 -4 12 -5 -77
l-2 -163 229 0 229 0 -5 213 c-3 116 -6 212 -6 212 -1 0 -32 -1 -69 -3z m-308
-324 c0 -10 -22 -22 -42 -23 -10 -1 -18 5 -18 14 0 11 9 16 30 16 17 0 30 -3
30 -7z"/>
<path d="M310 8355 l0 -74 -157 -4 -158 -3 163 -2 162 -2 0 80 c0 44 -2 80 -5
80 -3 0 -5 -34 -5 -75z"/>
<path d="M465 8250 c103 -4 119 -6 60 -8 l-80 -2 -38 -45 c-50 -58 -65 -58
-70 3 -2 26 -4 -51 -5 -170 l-2 -218 225 0 224 0 3 225 3 225 -230 -2 c-215
-2 -221 -3 -90 -8z"/>
<path d="M1260 8036 c0 -288 1 -289 118 -100 45 73 116 176 157 229 l75 95
-175 0 -175 0 0 -224z"/>
<path d="M52 7793 l-52 -4 0 -225 0 -224 160 0 160 0 0 230 0 230 -107 -2
c-60 -1 -132 -3 -161 -5z"/>
<path d="M790 7570 l0 -230 141 0 140 0 16 38 c8 20 49 106 89 191 52 109 74
165 74 193 l0 38 -230 0 -230 0 0 -230z"/>
<path d="M330 7110 l0 -230 230 0 230 0 -2 228 -3 227 -227 3 -228 2 0 -230z"/>
<path d="M7121 6954 c0 -11 3 -14 6 -6 3 7 2 16 -1 19 -3 4 -6 -2 -5 -13z"/>
<path d="M7092 6818 c-12 -50 -21 -93 -18 -95 2 -2 14 37 26 87 12 50 21 93
18 95 -2 2 -14 -37 -26 -87z"/>
<path d="M6957 6855 c-4 -22 -6 -94 -6 -160 l1 -120 14 128 c9 77 11 141 6
160 l-8 32 -7 -40z"/>
<path d="M833 6873 l-43 -4 1 -112 c0 -104 1 -110 14 -77 41 109 74 200 72
198 -1 -1 -21 -3 -44 -5z"/>
<path d="M0 6645 l0 -224 160 -3 160 -3 0 228 0 227 -160 0 -160 0 0 -225z"/>
<path d="M7052 6659 c-16 -71 -62 -167 -96 -200 -23 -23 -31 -50 -61 -195 -18
-93 -37 -202 -40 -241 -7 -70 -6 -73 14 -73 13 0 21 -7 22 -17 1 -44 29 68 43
175 9 64 29 164 46 222 16 58 30 116 30 129 0 13 14 70 31 127 17 57 29 109
27 116 -2 6 -10 -13 -16 -43z"/>
<path d="M330 6180 l0 -230 230 0 230 0 0 -230 0 -230 -230 0 -230 0 -1 168
c-1 92 -2 174 -3 182 -2 8 -3 36 -4 63 l-2 47 -160 0 -160 0 0 -230 0 -230
165 0 165 0 0 -214 c0 -118 -3 -221 -6 -230 -5 -14 -29 -16 -166 -16 l-160 0
5 -177 c3 -98 6 -182 7 -188 1 -5 -1 -31 -5 -57 l-8 -48 162 0 161 0 0 -230 0
-230 -160 0 -160 0 0 -235 0 -235 160 0 160 0 0 -225 0 -225 -160 0 -160 0 0
-235 0 -234 152 -4 153 -3 -152 -2 -153 -2 0 -1350 0 -1350 4200 0 4200 0 0
2275 0 2274 -102 4 -103 3 103 2 c79 2 102 5 102 16 0 7 -7 19 -15 26 -26 22
-29 76 -6 115 19 32 21 52 21 176 l0 139 -100 0 -100 0 0 225 0 225 100 0 100
0 0 240 0 240 -106 0 -106 0 4 35 c2 19 3 35 1 35 -3 0 -187 -81 -190 -83 -1
-1 41 0 93 1 l94 4 0 -231 0 -231 -230 0 c-127 0 -229 3 -229 8 1 4 1 84 0
178 l-1 172 -77 -24 c-87 -27 -297 -79 -358 -89 l-40 -6 3 -119 3 -120 -225 0
-225 0 -3 123 -3 122 -28 -84 c-15 -47 -31 -104 -34 -128 -6 -43 -6 -43 26
-43 l31 0 0 -225 0 -225 -40 0 c-37 0 -40 2 -41 28 -1 15 -5 0 -10 -33 -9 -65
7 -427 21 -485 7 -32 8 -33 9 -7 1 23 5 27 30 27 l29 0 1 -105 2 -105 -26 0
c-23 0 -25 3 -27 53 0 28 -4 -11 -8 -88 -6 -113 -14 -163 -41 -260 -29 -107
-33 -133 -32 -240 1 -163 45 -548 84 -735 15 -71 19 -124 17 -210 -2 -93 0
-122 14 -150 10 -19 29 -91 43 -159 21 -102 26 -148 24 -250 -2 -69 1 -157 6
-194 5 -47 4 -90 -5 -138 -12 -61 -11 -82 3 -164 9 -51 34 -149 56 -217 116
-366 194 -768 171 -887 -5 -28 -17 -51 -31 -63 -13 -10 -104 -58 -201 -108
-139 -71 -195 -106 -259 -161 -151 -130 -325 -193 -534 -192 -90 0 -139 7
-270 37 -424 96 -494 92 -866 -57 -382 -153 -372 -153 -1009 -33 -188 35 -486
98 -670 140 -175 41 -260 51 -545 66 -223 12 -346 32 -478 80 -92 34 -214 113
-251 163 l-20 27 23 102 c13 56 36 147 52 203 16 55 47 192 69 305 22 113 45
231 51 263 16 80 56 139 113 166 57 28 59 46 15 133 -53 106 -60 135 -60 257
-1 109 1 117 32 177 38 75 36 104 -11 255 -16 52 -34 117 -40 144 -16 71 -13
342 5 460 9 55 24 161 35 235 11 74 29 175 40 224 18 82 26 150 13 119 -3 -8
-24 -13 -54 -13 l-49 0 0 231 0 230 73 -1 c39 -1 75 -1 78 -1 11 2 -9 91 -50
226 -22 72 -47 156 -56 187 -11 43 -19 56 -30 52 -12 -5 -15 5 -15 53 0 32
-11 110 -24 173 -13 63 -27 143 -31 178 l-7 62 -198 0 -198 0 -7 133 c-4 72
-5 160 -4 194 l4 61 -55 11 c-30 7 -82 23 -115 36 -52 22 -75 25 -177 25
l-118 0 0 64 0 64 -82 58 c-46 31 -136 100 -201 153 -65 53 -132 103 -148 111
-16 8 -29 20 -29 25 0 6 -36 46 -80 90 -89 89 -86 71 -43 215 14 47 29 97 34
113 l8 27 -190 0 -189 0 0 -230z m920 -920 l0 -230 -230 0 -230 0 0 230 0 230
230 0 230 0 0 -230z m6470 -5 l0 -225 -225 0 -225 0 0 225 0 225 225 0 225 0
0 -225z m-6930 -465 l0 -230 230 0 230 0 0 -230 0 -230 -230 0 -230 0 0 230 0
230 -230 0 -230 0 0 230 0 230 230 0 230 0 0 -230z m920 0 l0 -230 -227 2
-228 3 -3 228 -2 227 230 0 230 0 0 -230z m5550 5 l0 -225 -225 0 -225 0 0
225 0 225 225 0 225 0 0 -225z m928 78 c-2 -134 -3 -138 -5 -40 l-4 107 -74 0
c-68 0 -75 -2 -75 -20 0 -18 7 -20 72 -20 97 0 77 -16 -37 -30 -49 -6 -106
-15 -125 -20 -33 -8 -33 -8 18 -9 51 -1 52 -2 52 -31 l0 -30 -115 0 c-115 0
-115 0 -115 -24 0 -13 6 -26 13 -29 6 -2 -2 -6 -20 -9 l-32 -4 -3 153 -3 153
228 0 227 0 -2 -147z m-194 -216 c-5 -15 -194 -53 -217 -44 -8 3 -20 0 -26 -6
-8 -8 -11 -1 -11 29 l0 39 129 -3 c98 -2 129 -6 125 -15z m68 -84 c-62 -2
-161 -2 -220 0 -59 1 -8 3 113 3 121 0 169 -2 107 -3z m-5892 -243 l0 -231
-225 1 -225 1 0 230 0 229 225 0 225 0 0 -230z m5548 193 c-1 -37 -1 -37 -5
-5 l-4 32 -214 0 -215 0 -3 -177 -2 -178 -3 183 -2 182 225 0 225 0 -2 -37z
m-1 -125 c-2 -13 -4 -3 -4 22 0 25 2 35 4 23 2 -13 2 -33 0 -45z m-440 -270
c-2 -13 -4 -3 -4 22 0 25 2 35 4 23 2 -13 2 -33 0 -45z m-6491 -260 l2 -228
-229 0 -229 0 0 230 0 230 228 -2 227 -3 1 -227z m924 1 l0 -229 -225 0 -224
0 -3 226 c-2 124 -1 228 1 230 3 3 105 4 228 4 l223 -1 0 -230z m-464 -346
c-2 -60 -4 -156 -5 -215 l-1 -108 -102 -2 -103 -2 105 -6 c83 -5 56 -7 -122
-8 l-228 -2 0 225 0 225 230 0 229 0 -3 -107z m922 -110 c-1 -120 -3 -192 -5
-160 -2 31 -7 57 -11 57 -4 0 -52 -11 -107 -25 -73 -18 -128 -25 -202 -25
l-103 0 -2 43 c-1 23 -5 4 -8 -43 -4 -60 -7 -17 -8 143 l-2 227 225 0 225 0
-2 -217z m-115 -230 c-56 -2 -151 -2 -210 0 -59 1 -13 3 102 3 116 0 164 -2
108 -3z m-1275 -95 c-2 -81 -2 -81 -5 -17 l-4 65 -47 -7 c-26 -4 -82 -14 -125
-23 -43 -9 -121 -16 -173 -16 l-94 0 0 40 0 40 225 0 225 0 -2 -82z m489 -15
c-2 -21 -4 -6 -4 32 0 39 2 55 4 38 2 -18 2 -50 0 -70z m326 90 c-56 -2 -151
-2 -210 0 -59 1 -13 3 102 3 116 0 164 -2 108 -3z m114 -100 c-2 -21 -4 -4 -4
37 0 41 2 58 4 38 2 -21 2 -55 0 -75z m-1222 -22 c24 -3 -77 -49 -114 -53 -40
-3 -41 -3 -41 27 l0 30 73 -2 c39 -1 77 -2 82 -2z m1222 -103 c-2 -13 -4 -5
-4 17 -1 22 1 32 4 23 2 -10 2 -28 0 -40z m-930 -55 c-3 -10 -5 -2 -5 17 0 19
2 27 5 18 2 -10 2 -26 0 -35z"/>
<path d="M7244 4675 c0 -55 1 -76 3 -47 2 29 2 74 0 100 -2 26 -3 2 -3 -53z"/>
<path d="M7875 4840 c-16 -7 -17 -9 -3 -9 9 -1 20 4 23 9 7 11 7 11 -20 0z"/>
<path d="M1896 6208 c4 -118 13 -198 39 -333 22 -110 31 -335 16 -363 -12 -22
-11 -22 64 -22 84 0 83 -1 60 74 -8 26 -17 85 -21 130 -7 93 -18 142 -46 209
-16 38 -25 47 -45 47 l-24 0 5 110 c4 93 2 121 -15 178 -12 37 -24 71 -28 75
-5 4 -6 -43 -5 -105z"/>
<path d="M7198 5713 c6 -2 18 -2 25 0 6 3 1 5 -13 5 -14 0 -19 -2 -12 -5z"/>
<path d="M8392 4660 c0 -19 2 -27 5 -17 2 9 2 25 0 35 -3 9 -5 1 -5 -18z"/>
<path d="M6758 4543 c7 -3 16 -2 19 1 4 3 -2 6 -13 5 -11 0 -14 -3 -6 -6z"/>
<path d="M6742 4480 c0 -14 2 -19 5 -12 2 6 2 18 0 25 -3 6 -5 1 -5 -13z"/>
<path d="M2333 4000 c0 -47 2 -66 4 -42 2 23 2 61 0 85 -2 23 -4 4 -4 -43z"/>
<path d="M2323 3865 c0 -22 2 -30 4 -17 2 12 2 30 0 40 -3 9 -5 -1 -4 -23z"/>
<path d="M2312 3790 c0 -19 2 -27 5 -17 2 9 2 25 0 35 -3 9 -5 1 -5 -18z"/>
<path d="M2302 3730 c0 -14 2 -19 5 -12 2 6 2 18 0 25 -3 6 -5 1 -5 -13z"/>
<path d="M2291 3684 c0 -11 3 -14 6 -6 3 7 2 16 -1 19 -3 4 -6 -2 -5 -13z"/>
</g>
</svg>
